<svg width="645" height="623" viewBox="0 0 645 623" fill="none" xmlns="http://www.w3.org/2000/svg">
<circle cx="333.5" cy="311.5" r="309.5" stroke="#402766" stroke-width="2.5" stroke-dasharray="10 10"/>
<g filter="url(#filter0_d_15_11)">
<path d="M5.09071 206.629C5.04061 204.625 6.62462 202.959 8.6287 202.909L61.3526 201.591C63.3566 201.541 65.0219 203.125 65.072 205.129L66.39 257.853C66.4401 259.857 64.8561 261.522 62.852 261.573L10.1281 262.891C8.12405 262.941 6.45881 261.357 6.40871 259.353L5.09071 206.629Z" fill="#ECE6FF"/>
<path d="M5.99789 206.606C5.96031 205.103 7.14832 203.854 8.65137 203.816L61.3752 202.498C62.8783 202.461 64.1272 203.649 64.1648 205.152L65.4828 257.876C65.5204 259.379 64.3324 260.628 62.8293 260.665L10.1054 261.983C8.60239 262.021 7.35346 260.833 7.31589 259.33L5.99789 206.606Z" stroke="#9B79D8" stroke-width="1.81492"/>
<g clip-path="url(#clip0_15_11)">
<path d="M47.1384 210.834C46.0743 210.876 45.0386 211.197 44.1433 211.764C43.9552 211.883 43.8448 212.093 43.8536 212.316L44.0598 217.544L23.1577 218.369C22.8135 218.382 22.5454 218.672 22.5589 219.017L23.1658 234.401C20.9635 234.804 19.3301 236.78 19.4208 239.08C19.4818 240.625 20.3063 241.961 21.515 242.743C18.4741 243.867 16.2654 246.684 16.0369 250.08C16.025 250.257 16.0887 250.43 16.2121 250.557C16.3355 250.684 16.5071 250.752 16.684 250.745L32.2105 250.133C32.3874 250.126 32.553 250.044 32.666 249.908C32.779 249.772 32.8289 249.594 32.8031 249.419C32.3773 246.523 30.5258 244.17 28.032 243.007L32.7725 242.82L32.7936 243.354C32.8038 243.612 32.9717 243.837 33.216 243.92L34.1054 244.223C34.2596 244.683 34.4633 245.125 34.7139 245.541L34.3664 246.415C34.271 246.654 34.3331 246.928 34.5227 247.103L35.9313 248.405C36.1209 248.58 36.3986 248.621 36.6302 248.507L37.474 248.091C37.9091 248.308 38.365 248.477 38.8358 248.594L39.2077 249.457C39.3098 249.694 39.5473 249.844 39.8052 249.833L41.7217 249.758C41.9796 249.748 42.2046 249.58 42.2877 249.335L42.5904 248.446C43.0508 248.292 43.4923 248.088 43.9089 247.837L44.7823 248.185C45.0223 248.28 45.2959 248.218 45.4711 248.029L46.7728 246.62C46.948 246.43 46.9884 246.153 46.8744 245.921L46.4591 245.077C46.6761 244.642 46.8444 244.186 46.9618 243.716L47.8248 243.344C48.0618 243.242 48.2115 243.004 48.2013 242.746L48.1802 242.212L48.3757 242.205C51.7106 242.073 54.3166 239.253 54.1852 235.918L54.1852 235.918L53.4704 217.797L53.4249 216.643C53.2934 213.308 50.4732 210.702 47.1384 210.834ZM45.1152 212.641C45.7513 212.302 46.4609 212.109 47.1876 212.08C49.8349 211.976 52.0737 214.045 52.1782 216.692L52.2237 217.846L52.7935 232.293C51.6303 230.894 49.8529 230.031 47.8987 230.108C47.1823 230.137 46.4787 230.292 45.8221 230.563L45.1152 212.641ZM20.6676 239.031C20.5953 237.198 22.0279 235.648 23.861 235.575C25.6942 235.503 27.2444 236.936 27.3167 238.769C27.389 240.601 25.9575 242.151 24.1254 242.224C24.1247 242.224 24.124 242.224 24.1233 242.224C24.1226 242.224 24.122 242.224 24.1213 242.224C22.289 242.295 20.7399 240.863 20.6676 239.031ZM31.4342 248.915L17.3621 249.47C17.9107 246.137 20.7258 243.608 24.1709 243.471L24.1725 243.471L24.1741 243.471C27.6192 243.336 30.6247 245.636 31.4342 248.915ZM46.9377 242.367L46.1756 242.696C45.9866 242.777 45.85 242.946 45.8103 243.148C45.699 243.714 45.4987 244.257 45.215 244.761C45.1141 244.94 45.1082 245.158 45.199 245.342L45.5658 246.088L44.8455 246.867L44.0741 246.56C43.8827 246.484 43.6664 246.507 43.4956 246.622C43.0154 246.945 42.4901 247.187 41.9343 247.343C41.7363 247.398 41.5782 247.548 41.512 247.742L41.2446 248.528L40.1843 248.57L39.8558 247.807C39.7745 247.619 39.6051 247.482 39.4033 247.442C38.8374 247.331 38.2948 247.131 37.7904 246.847C37.6112 246.746 37.3937 246.74 37.209 246.831L36.4637 247.198L35.6843 246.478L35.9912 245.706C36.0672 245.515 36.0441 245.299 35.9293 245.128C35.6069 244.648 35.3644 244.122 35.2087 243.566C35.1532 243.368 35.0036 243.21 34.8089 243.144L34.0236 242.877L33.9817 241.816L34.7438 241.488C34.9327 241.407 35.0693 241.237 35.1091 241.035C35.2203 240.469 35.4207 239.927 35.7045 239.423C35.8053 239.243 35.8113 239.026 35.7205 238.841L35.3537 238.096L36.074 237.317L36.8458 237.624C37.0371 237.7 37.2535 237.677 37.4242 237.562C37.9045 237.239 38.4297 236.997 38.9851 236.841C39.1832 236.786 39.3412 236.636 39.4075 236.442L39.6749 235.656L40.7353 235.614L41.0637 236.376C41.1451 236.565 41.3143 236.702 41.5162 236.741C42.0822 236.853 42.6248 237.053 43.129 237.337C43.3084 237.438 43.5259 237.444 43.7105 237.353L44.4558 236.986L45.2352 237.706L44.9283 238.478C44.8523 238.669 44.8754 238.885 44.9902 239.056C45.3128 239.536 45.5552 240.062 45.7108 240.617C45.7662 240.815 45.9158 240.974 46.1106 241.04L46.8959 241.307L46.9377 242.367ZM48.3266 240.958L48.1311 240.965L48.1258 240.83C48.1156 240.572 47.9477 240.347 47.7034 240.264L46.8141 239.961C46.6599 239.5 46.4562 239.059 46.2056 238.643L46.553 237.769C46.6484 237.529 46.5863 237.255 46.3967 237.08L44.9881 235.779C44.7986 235.603 44.5207 235.563 44.2892 235.677L43.4454 236.092C43.0104 235.875 42.5545 235.707 42.0836 235.59L41.7117 234.727C41.6097 234.49 41.3721 234.34 41.1142 234.35L39.1978 234.426C38.9399 234.436 38.7149 234.604 38.6318 234.848L38.329 235.738C37.8688 235.892 37.4276 236.096 37.0109 236.346L36.1371 235.999C35.8972 235.903 35.6235 235.965 35.4483 236.155L34.1466 237.563C33.9715 237.753 33.9311 238.031 34.0451 238.262L34.4604 239.106C34.2434 239.541 34.0751 239.997 33.9577 240.468L33.0947 240.84C32.8577 240.942 32.7081 241.18 32.7182 241.437L32.7236 241.573L27.5446 241.777C28.2203 240.944 28.6091 239.873 28.5636 238.719C28.4722 236.402 26.6625 234.551 24.4124 234.345L23.8304 219.591L44.1091 218.791L44.614 231.591C44.6228 231.814 44.7499 232.015 44.9473 232.119C45.1449 232.222 45.3826 232.213 45.5711 232.093C46.2812 231.644 47.1031 231.389 47.9479 231.355C50.5953 231.251 52.8341 233.32 52.9385 235.967C53.0429 238.615 50.974 240.853 48.3266 240.958ZM42.2628 231.735C42.2764 232.079 42.0083 232.369 41.664 232.383L33.5483 232.703C33.2041 232.716 32.9139 232.448 32.9004 232.104C32.8868 231.76 33.1549 231.47 33.4992 231.456L41.6148 231.136C41.9591 231.122 42.2492 231.39 42.2628 231.735ZM42.159 229.104C42.1726 229.448 41.9045 229.739 41.5602 229.752L33.4446 230.072C33.1003 230.086 32.8102 229.818 32.7966 229.474C32.783 229.129 33.0511 228.839 33.3954 228.826L41.511 228.505C41.8554 228.492 42.1454 228.76 42.159 229.104ZM29.9659 227.969L26.3099 228.113C25.703 228.137 25.2287 228.651 25.2527 229.257L25.3969 232.913C25.4208 233.52 25.934 233.995 26.541 233.971L30.1969 233.826C30.8038 233.803 31.2781 233.289 31.2542 232.682L31.11 229.026C31.086 228.42 30.5728 227.945 29.9659 227.969ZM30.0016 232.585L26.6379 232.718L26.5052 229.354L29.869 229.222L30.0016 232.585ZM26.8538 231.372C26.6007 231.138 26.5852 230.743 26.819 230.49C27.0529 230.237 27.4476 230.222 27.7006 230.456L28.0245 230.755L28.6979 229.852C28.9039 229.576 29.2949 229.519 29.571 229.725C29.8472 229.931 29.9041 230.322 29.6981 230.598L28.6103 232.057C28.5046 232.198 28.3436 232.289 28.1675 232.305C28.1566 232.306 28.1457 232.307 28.1347 232.307C27.9699 232.314 27.8086 232.255 27.6868 232.142L26.8538 231.372ZM41.9619 224.107C41.9755 224.451 41.7074 224.741 41.3631 224.755L33.2475 225.075C32.9032 225.088 32.6131 224.82 32.5995 224.476C32.5859 224.132 32.854 223.842 33.1983 223.828L41.3139 223.508C41.6583 223.494 41.9483 223.762 41.9619 224.107ZM41.8581 221.476C41.8717 221.821 41.6036 222.111 41.2593 222.124L33.1437 222.444C32.7994 222.458 32.5093 222.19 32.4957 221.846C32.4821 221.501 32.7503 221.211 33.0945 221.198L41.2102 220.878C41.5545 220.864 41.8446 221.132 41.8581 221.476ZM29.665 220.341L26.009 220.485C25.4022 220.509 24.9278 221.023 24.9518 221.63L25.096 225.286C25.1199 225.892 25.6331 226.367 26.2401 226.343L29.896 226.199C30.5029 226.175 30.9772 225.661 30.9533 225.055L30.8091 221.399C30.7852 220.792 30.2719 220.317 29.665 220.341ZM29.7008 224.958L26.337 225.09L26.2043 221.727L29.5681 221.594L29.7008 224.958ZM26.5529 223.744C26.2998 223.51 26.2843 223.116 26.5182 222.862C26.7521 222.61 27.1468 222.594 27.3997 222.828L27.7236 223.127L28.397 222.224C28.603 221.948 28.994 221.891 29.2701 222.097C29.5463 222.303 29.6033 222.694 29.3973 222.97L28.3094 224.429C28.2037 224.571 28.0428 224.661 27.8666 224.677C27.8557 224.678 27.8448 224.679 27.8339 224.679C27.669 224.686 27.5077 224.627 27.3859 224.514L26.5529 223.744ZM40.2832 237.615C37.8147 237.712 35.8856 239.8 35.9829 242.268C36.0803 244.737 38.1678 246.666 40.6363 246.569C43.1049 246.471 45.0339 244.384 44.9366 241.915C44.8391 239.447 42.7516 237.518 40.2832 237.615ZM40.5872 245.322C38.8061 245.392 37.3 244 37.2297 242.219C37.1595 240.438 38.5513 238.932 40.3323 238.862C42.1134 238.792 43.6195 240.183 43.6898 241.964C43.76 243.745 42.3682 245.252 40.5872 245.322Z" fill="#160334"/>
</g>
</g>
<g filter="url(#filter1_d_15_11)">
<path d="M0.862527 360.526C0.386166 358.579 1.57858 356.614 3.52586 356.137L54.7556 343.605C56.7029 343.129 58.6676 344.321 59.144 346.269L71.6763 397.498C72.1526 399.446 70.9602 401.41 69.0129 401.887L17.7832 414.419C15.8359 414.895 13.8711 413.703 13.3948 411.756L0.862527 360.526Z" fill="#ECE6FF"/>
<path d="M1.74399 360.31C1.38672 358.85 2.28103 357.376 3.7415 357.019L54.9712 344.487C56.4317 344.129 57.9053 345.024 58.2625 346.484L70.7948 397.714C71.1521 399.174 70.2577 400.648 68.7973 401.005L17.5675 413.537C16.1071 413.895 14.6335 413 14.2763 411.54L1.74399 360.31Z" stroke="#9B79D8" stroke-width="1.81492"/>
<g clip-path="url(#clip1_15_11)">
<path d="M53.6247 369.29L51.038 369.438L48.8868 366.574L49.7488 364.131C49.8358 363.884 49.7363 363.611 49.5114 363.478L44.8997 360.752C44.6748 360.619 44.3873 360.664 44.2133 360.859L42.4883 362.793L38.9426 362.289L37.8244 359.951C37.7116 359.716 37.4479 359.593 37.1949 359.658L32.0065 360.991C31.7535 361.056 31.5818 361.291 31.5966 361.552L31.744 364.139L28.8808 366.29L26.4372 365.428C26.1909 365.341 25.9174 365.441 25.7845 365.665L23.0586 370.277C22.9257 370.502 22.9704 370.79 23.1653 370.963L25.099 372.689L24.595 376.234L22.2578 377.352C22.0221 377.465 21.8991 377.729 21.9642 377.982L23.2978 383.17C23.3628 383.423 23.5977 383.595 23.8585 383.58L26.4453 383.433L27.403 384.707C26.1841 385.846 24.9975 387.647 23.7037 390.292C22.9691 390.142 22.1867 390.46 21.7843 391.141L19.9881 394.18C19.8344 394.44 19.9206 394.775 20.1806 394.929L29.5747 400.482C29.6995 400.555 29.8487 400.577 29.9892 400.54C30.1297 400.504 30.25 400.414 30.3238 400.289L32.12 397.25C32.496 396.614 32.4352 395.839 32.0289 395.274C33.4095 394.224 35.1198 393.725 37.3594 393.29C37.8613 393.192 38.3908 393.101 38.9513 393.004C40.281 392.774 41.6566 392.537 42.9498 392.173C45.667 391.41 47.1146 390.22 49.013 388.49C50.9487 386.727 54.9986 382.665 55.5891 381.264C56.0047 380.277 55.7965 379.316 55.0587 378.814C54.4511 378.401 53.4733 378.343 52.5448 379.051L52.8881 376.636L55.2253 375.518C55.461 375.405 55.584 375.141 55.519 374.888L54.1854 369.7C54.1203 369.447 53.8854 369.275 53.6246 369.29L53.6247 369.29ZM31.1785 396.694L29.6606 399.262L21.208 394.266L22.7259 391.698C22.926 391.359 23.3642 391.247 23.7026 391.447L30.9274 395.717C31.2659 395.917 31.3785 396.355 31.1784 396.694L31.1785 396.694ZM54.4438 379.719C54.7405 379.92 54.7918 380.339 54.5812 380.839C54.1645 381.829 50.7915 385.392 48.2766 387.682C46.4939 389.306 45.1395 390.422 42.6543 391.12C41.4146 391.468 40.0676 391.701 38.765 391.926C38.1988 392.024 37.6639 392.116 37.1509 392.216C35.1691 392.601 32.9263 393.134 31.148 394.577L24.692 390.761C28.2097 383.567 30.2939 383.863 34.0366 384.397C36.2092 384.707 38.9131 385.092 42.5845 384.149C42.5912 384.147 42.5978 384.145 42.6044 384.143C43.0055 384.023 43.4249 384.13 43.7239 384.427C44.0228 384.725 44.131 385.143 44.0132 385.545C43.7998 386.275 42.5272 386.952 40.6097 387.357C38.8143 387.735 36.9178 387.771 36.1214 387.586C35.8273 387.517 35.5334 387.7 35.465 387.994C35.3966 388.289 35.5797 388.583 35.8739 388.651C36.9494 388.901 39.0361 388.806 40.8354 388.427C41.0366 388.384 41.2435 388.337 41.4528 388.283C42.401 388.039 43.3973 387.672 44.1156 387.125C46.73 385.606 51.3383 381.728 52.9883 380.112C53.5608 379.551 54.1441 379.515 54.4438 379.719L54.4438 379.719ZM54.3479 374.725L52.152 375.776C51.9869 375.855 51.8723 376.011 51.8466 376.192L51.2752 380.213C49.705 381.624 47.1862 383.711 45.1531 385.144C45.1346 384.591 44.908 384.063 44.4955 383.652C43.9107 383.07 43.0912 382.861 42.3031 383.092C38.8477 383.978 36.3738 383.625 34.1911 383.314C32.21 383.032 30.4992 382.788 28.7857 383.7C28.6073 383.795 28.4308 383.902 28.2554 384.021L27.144 382.542C27.0341 382.395 26.8583 382.314 26.6756 382.324L24.2453 382.463L23.1356 378.145L25.3314 377.095C25.4965 377.016 25.6111 376.859 25.6369 376.678L26.2232 372.553C26.2489 372.371 26.1824 372.189 26.0459 372.068L24.2292 370.447L26.4974 366.609L28.7933 367.419C28.9658 367.48 29.1575 367.45 29.3037 367.34L32.6352 364.837C32.7815 364.727 32.8631 364.552 32.8527 364.369L32.7143 361.939L37.0318 360.829L38.0825 363.025C38.1614 363.19 38.3177 363.304 38.4988 363.33L42.6244 363.917C42.8054 363.942 42.9875 363.876 43.1094 363.739L44.7302 361.923L48.5678 364.191L47.7579 366.487C47.697 366.659 47.7265 366.851 47.8364 366.997L50.3395 370.329C50.4493 370.475 50.6251 370.557 50.8078 370.546L53.2381 370.408L54.3479 374.725ZM47.2126 371.095C46.4903 370.708 45.7068 370.478 44.9074 370.407C45.4382 369.672 45.6515 368.715 45.4087 367.771C44.9754 366.085 43.2514 365.066 41.5656 365.499C39.8797 365.933 38.8607 367.657 39.2941 369.343C39.5368 370.287 40.1848 371.022 41.0041 371.41C40.3383 371.858 39.763 372.437 39.3167 373.125C38.8837 373.791 38.5922 374.527 38.4478 375.291C37.9528 374.692 37.3424 374.187 36.6416 373.812C35.9193 373.425 35.1359 373.195 34.3365 373.124C34.8673 372.389 35.0806 371.433 34.8378 370.488C34.4045 368.802 32.6805 367.783 30.9946 368.217C29.3087 368.65 28.2897 370.374 28.7231 372.06C28.9658 373.004 29.6138 373.739 30.4331 374.127C29.7673 374.575 29.192 375.155 28.7457 375.842C27.9265 377.103 27.6083 378.612 27.8496 380.091C27.8522 380.107 27.8556 380.123 27.8597 380.139L28.3113 381.895C28.3864 382.188 28.6845 382.364 28.9771 382.289L50.119 376.855C50.4115 376.78 50.5877 376.482 50.5125 376.189L50.061 374.432C50.0569 374.416 50.0521 374.401 50.0466 374.385C49.5449 372.973 48.5384 371.805 47.2126 371.095L47.2126 371.095ZM44.4617 375.142L44.2162 375.798L43.6849 375.342L43.1179 371.638C43.1259 371.636 43.1336 371.633 43.1416 371.631C43.1519 371.629 43.1622 371.627 43.1725 371.624L44.4616 375.142L44.4617 375.142ZM41.8378 366.559C42.9395 366.276 44.0662 366.942 44.3493 368.043C44.6325 369.145 43.9666 370.272 42.8649 370.555C41.7632 370.838 40.6365 370.172 40.3533 369.07C40.0701 367.969 40.7361 366.842 41.8378 366.559ZM38.4368 377.446L38.7459 378.649L34.301 379.791C34.3406 379.744 34.3728 379.691 34.3949 379.631L34.986 378.053C35.0318 377.93 35.0323 377.796 34.9873 377.673L33.7113 374.191C35.7871 374.145 37.703 375.411 38.4368 377.446L38.4368 377.446ZM32.5468 374.355C32.5548 374.353 32.5626 374.351 32.5705 374.348C32.5808 374.346 32.5912 374.344 32.6014 374.341L33.8906 377.859L33.645 378.515L33.1137 378.059L32.5468 374.355ZM31.2667 369.276C32.3685 368.993 33.4952 369.659 33.7784 370.76C34.0615 371.862 33.3956 372.989 32.2938 373.272C31.192 373.555 30.0654 372.889 29.7822 371.788C29.4991 370.686 30.165 369.559 31.2667 369.276ZM28.925 379.891C28.5863 377.752 29.6574 375.717 31.5018 374.757L32.0632 378.425C32.083 378.554 32.1484 378.672 32.2476 378.757L33.5265 379.855C33.5744 379.896 33.6285 379.927 33.6859 379.949L29.2341 381.094L28.925 379.891L28.925 379.891ZM39.496 377.174C39.1573 375.035 40.2284 373 42.0728 372.04L42.6342 375.708C42.654 375.837 42.7194 375.955 42.8186 376.04L44.0975 377.138C44.1454 377.179 44.1995 377.21 44.2569 377.232L39.8051 378.377L39.496 377.174L39.496 377.174ZM49.3169 375.932L44.872 377.074C44.9116 377.027 44.9438 376.974 44.966 376.914L45.5569 375.336C45.6027 375.213 45.6032 375.079 45.5582 374.956L44.2822 371.474C46.358 371.428 48.2739 372.694 49.0077 374.729L49.3169 375.932Z" fill="#160334"/>
</g>
</g>
<g filter="url(#filter2_d_15_11)">
<path d="M86.7579 510.55C86.3393 508.589 87.5893 506.661 89.5498 506.242L141.128 495.23C143.088 494.812 145.017 496.062 145.436 498.022L156.447 549.6C156.866 551.561 155.616 553.49 153.655 553.908L102.077 564.92C100.117 565.338 98.1881 564.088 97.7695 562.128L86.7579 510.55Z" fill="#ECE6FF"/>
<path d="M87.6453 510.36C87.3314 508.89 88.2689 507.444 89.7393 507.13L141.317 496.118C142.788 495.804 144.234 496.742 144.548 498.212L155.56 549.79C155.874 551.26 154.936 552.707 153.466 553.021L101.888 564.032C100.417 564.346 98.9709 563.409 98.657 561.938L87.6453 510.36Z" stroke="#9B79D8" stroke-width="1.81492"/>
<g clip-path="url(#clip2_15_11)">
<path d="M131.08 542.994C131.241 543.249 131.165 543.587 130.91 543.749C129.22 544.818 127.363 545.577 125.391 546.004C123.42 546.431 121.416 546.508 119.432 546.233C119.133 546.192 118.924 545.916 118.966 545.617C119.007 545.317 119.283 545.108 119.582 545.15C121.438 545.406 123.315 545.334 125.16 544.935C127.005 544.535 128.744 543.825 130.325 542.824C130.58 542.663 130.918 542.739 131.08 542.994L131.08 542.994ZM138.079 532.127C138.144 532.137 138.208 532.134 138.27 532.12C138.487 532.073 138.663 531.895 138.696 531.661C138.971 529.68 138.894 527.675 138.467 525.704C138.04 523.732 137.281 521.875 136.211 520.183C136.05 519.928 135.712 519.852 135.456 520.013C135.201 520.175 135.125 520.513 135.287 520.768C136.288 522.351 136.998 524.09 137.397 525.935C137.797 527.78 137.869 529.657 137.612 531.51C137.571 531.81 137.779 532.086 138.079 532.127ZM105.476 526.503C105.177 526.462 104.901 526.671 104.86 526.97C104.585 528.953 104.662 530.958 105.089 532.929C105.516 534.9 106.275 536.758 107.344 538.448C107.47 538.647 107.704 538.737 107.922 538.69C107.983 538.677 108.043 538.653 108.099 538.617C108.354 538.456 108.43 538.118 108.269 537.863C107.268 536.281 106.558 534.544 106.158 532.698C105.759 530.852 105.686 528.976 105.943 527.12C105.985 526.821 105.776 526.545 105.476 526.503L105.476 526.503ZM113.054 515.879C113.115 515.866 113.174 515.842 113.23 515.806C114.814 514.805 116.552 514.095 118.398 513.695C120.243 513.296 122.119 513.224 123.973 513.481C124.272 513.522 124.548 513.313 124.59 513.014C124.631 512.715 124.422 512.439 124.123 512.397C122.142 512.122 120.138 512.199 118.166 512.626C116.194 513.053 114.338 513.812 112.646 514.882C112.39 515.043 112.314 515.381 112.476 515.636C112.602 515.836 112.836 515.926 113.054 515.879L113.054 515.879ZM128.362 519.092C125.459 517.219 124.618 513.334 126.488 510.431C128.359 507.526 132.245 506.685 135.15 508.556C136.558 509.461 137.528 510.861 137.882 512.497C138.236 514.133 137.932 515.809 137.025 517.217C136.978 517.291 136.928 517.362 136.877 517.434C136.869 517.447 136.861 517.46 136.851 517.472C135.916 518.779 134.556 519.626 133.082 519.945C131.513 520.285 129.815 520.028 128.362 519.092C128.362 519.092 128.362 519.092 128.362 519.092ZM135.768 517.089C135.023 515.824 133.559 515.183 132.119 515.495C130.736 515.794 129.672 516.937 129.471 518.338C129.465 518.377 129.462 518.417 129.458 518.457C131.615 519.528 134.248 518.958 135.768 517.089L135.768 517.089ZM131.888 514.425C132.754 514.238 133.307 513.38 133.119 512.514C132.932 511.647 132.074 511.093 131.207 511.28C130.341 511.468 129.786 512.327 129.974 513.195C130.162 514.062 131.02 514.613 131.888 514.425ZM128.459 517.807C128.705 516.745 129.332 515.82 130.191 515.19C129.556 514.822 129.072 514.198 128.905 513.426C128.59 511.969 129.518 510.527 130.976 510.211C132.433 509.896 133.873 510.825 134.188 512.282C134.355 513.052 134.174 513.818 133.751 514.415C134.796 514.63 135.743 515.214 136.408 516.085C136.916 515.046 137.061 513.875 136.813 512.728C136.521 511.378 135.72 510.223 134.558 509.476C132.16 507.931 128.952 508.625 127.408 511.024C125.977 513.245 126.47 516.162 128.459 517.807L128.459 517.807ZM128.908 529.633C128.88 530.275 128.765 530.908 128.564 531.523L129.659 532.229C129.913 532.392 129.987 532.731 129.823 532.985L128.446 535.123C128.368 535.245 128.244 535.331 128.102 535.361C127.96 535.392 127.812 535.365 127.69 535.286L126.595 534.581C126.118 535.018 125.589 535.385 125.016 535.676L125.291 536.948C125.355 537.244 125.168 537.535 124.873 537.599L122.388 538.137C122.093 538.201 121.801 538.013 121.737 537.718L121.462 536.445C120.819 536.417 120.187 536.302 119.571 536.101L118.864 537.198C118.7 537.451 118.362 537.524 118.108 537.361L115.972 535.983C115.718 535.819 115.645 535.481 115.809 535.227L116.514 534.133C116.078 533.658 115.711 533.129 115.418 532.553L114.144 532.829C113.849 532.893 113.558 532.705 113.494 532.41L112.956 529.925C112.892 529.63 113.08 529.339 113.375 529.275L114.649 528.999C114.677 528.354 114.793 527.72 114.993 527.108L113.898 526.401C113.644 526.237 113.571 525.899 113.734 525.645L115.11 523.51C115.273 523.256 115.612 523.183 115.865 523.346L116.962 524.051C117.437 523.615 117.966 523.249 118.542 522.955L118.266 521.682C118.202 521.386 118.39 521.095 118.685 521.031L121.17 520.493C121.465 520.429 121.756 520.617 121.82 520.912L122.096 522.186C122.741 522.215 123.374 522.33 123.987 522.53L124.692 521.436C124.855 521.182 125.194 521.108 125.447 521.272L127.585 522.647C127.839 522.81 127.912 523.148 127.749 523.403L127.044 524.5C127.481 524.977 127.847 525.506 128.138 526.079L129.411 525.804C129.707 525.74 129.998 525.927 130.062 526.223L130.6 528.707C130.663 529.003 130.476 529.294 130.181 529.358L128.908 529.633ZM128.25 528.656L129.415 528.404L129.108 526.989L127.944 527.241C127.688 527.296 127.429 527.162 127.325 526.922C127.009 526.185 126.553 525.526 125.969 524.964C125.781 524.783 125.747 524.494 125.888 524.274L126.533 523.271L125.315 522.487L124.67 523.489C124.528 523.709 124.251 523.798 124.007 523.701C123.26 523.403 122.472 523.259 121.663 523.274C121.402 523.279 121.174 523.098 121.119 522.843L120.866 521.678L119.451 521.985L119.703 523.149C119.758 523.404 119.625 523.663 119.385 523.767C118.643 524.088 117.984 524.545 117.428 525.125C117.247 525.314 116.957 525.348 116.737 525.207L115.733 524.561L114.95 525.778L115.952 526.425C116.172 526.567 116.261 526.844 116.164 527.087C115.866 527.834 115.722 528.623 115.737 529.432C115.741 529.693 115.561 529.921 115.306 529.976L114.141 530.228L114.448 531.644L115.612 531.392C115.867 531.336 116.126 531.47 116.23 531.709C116.551 532.452 117.008 533.11 117.588 533.667C117.777 533.848 117.811 534.138 117.669 534.358L117.024 535.36L118.241 536.144L118.888 535.142C119.03 534.923 119.307 534.834 119.549 534.93C120.303 535.229 121.091 535.372 121.893 535.356C122.155 535.35 122.384 535.531 122.439 535.787L122.691 536.951L124.107 536.645L123.854 535.481C123.799 535.225 123.933 534.966 124.173 534.862C124.91 534.546 125.569 534.089 126.131 533.506C126.312 533.317 126.602 533.284 126.821 533.425L127.823 534.07L128.607 532.852L127.606 532.207C127.386 532.065 127.297 531.788 127.394 531.545C127.693 530.792 127.836 530.003 127.819 529.202C127.814 528.94 127.994 528.711 128.25 528.656L128.25 528.656ZM126.034 528.395C126.542 530.741 125.046 533.063 122.7 533.571C120.354 534.079 118.029 532.584 117.521 530.238C117.014 527.891 118.51 525.567 120.857 525.059C123.205 524.551 125.526 526.047 126.034 528.395ZM124.965 528.626C124.584 526.868 122.846 525.748 121.089 526.128C119.332 526.508 118.21 528.248 118.591 530.006C118.971 531.764 120.711 532.883 122.469 532.502C124.227 532.122 125.345 530.383 124.965 528.626ZM116.481 538.255L118.837 549.136C118.901 549.431 118.713 549.722 118.418 549.786L107.535 552.142C107.24 552.206 106.949 552.018 106.885 551.723L104.529 540.842C104.465 540.547 104.653 540.256 104.948 540.192L115.831 537.836C116.126 537.772 116.417 537.96 116.481 538.255ZM110.158 540.184L110.601 542.229L111.525 542.029L111.082 539.984L110.158 540.184ZM115.528 539.021L112.151 539.752L112.71 542.332C112.774 542.627 112.586 542.919 112.291 542.982L110.297 543.414C110.002 543.478 109.711 543.29 109.647 542.995L109.089 540.415L105.714 541.146L107.838 550.957L117.652 548.833L115.528 539.021ZM143.398 537.984C144.127 541.352 141.98 544.686 138.612 545.415C135.244 546.144 131.911 543.997 131.182 540.629C130.453 537.261 132.6 533.928 135.968 533.198C139.336 532.469 142.669 534.616 143.398 537.984ZM142.329 538.216C141.727 535.437 138.977 533.666 136.199 534.268C133.421 534.869 131.649 537.619 132.251 540.397C132.852 543.176 135.602 544.947 138.38 544.345C141.159 543.744 142.93 540.994 142.329 538.216ZM136.619 537.063C136.992 536.954 137.726 536.883 138.45 537.624C138.661 537.84 139.007 537.844 139.224 537.633C139.44 537.422 139.444 537.076 139.232 536.86C138.623 536.236 137.879 535.905 137.112 535.9L136.967 535.23C136.903 534.935 136.612 534.747 136.317 534.811C136.021 534.875 135.834 535.166 135.898 535.461L136.038 536.109C135.272 536.422 134.685 537.052 134.539 537.746C134.414 538.34 134.624 538.917 135.114 539.327C135.642 539.772 136.466 539.813 137.262 539.853C137.85 539.882 138.515 539.916 138.762 540.124C138.946 540.278 139.013 540.444 138.97 540.644C138.902 540.969 138.533 541.386 137.96 541.552C137.588 541.66 136.854 541.731 136.13 540.989C135.919 540.773 135.572 540.769 135.356 540.98C135.14 541.191 135.136 541.537 135.347 541.753C135.957 542.378 136.701 542.708 137.468 542.713L137.613 543.385C137.677 543.68 137.968 543.868 138.263 543.804C138.559 543.74 138.746 543.449 138.682 543.154L138.542 542.505C139.307 542.193 139.894 541.563 140.041 540.87C140.166 540.275 139.956 539.697 139.466 539.286C138.937 538.841 138.114 538.8 137.317 538.76C136.73 538.731 136.065 538.697 135.817 538.489C135.633 538.335 135.568 538.17 135.61 537.971C135.678 537.646 136.047 537.229 136.619 537.062L136.619 537.063ZM101.25 525.694L99.6205 518.166C99.5845 517.999 99.6279 517.826 99.7379 517.696C99.8478 517.566 100.012 517.495 100.182 517.504L103.081 517.645L102.364 514.334C102.3 514.038 102.488 513.747 102.783 513.683L104.811 513.244C105.107 513.181 105.398 513.368 105.462 513.663L106.358 517.805L108.838 517.926L107.806 513.156C107.742 512.861 107.929 512.569 108.224 512.506L110.253 512.067C110.548 512.003 110.839 512.19 110.903 512.485L113.202 523.106C113.266 523.402 113.078 523.693 112.783 523.757L101.9 526.112C101.605 526.176 101.314 525.989 101.25 525.694ZM109.641 523.318L109.381 522.119L104.323 523.213L104.582 524.413L109.641 523.318ZM109.97 517.981L110.984 518.031L109.949 513.251L108.991 513.459L109.97 517.981ZM104.212 517.7L105.227 517.75L104.508 514.429L103.549 514.637L104.212 517.7ZM102.204 524.927L103.513 524.644L103.138 522.91C103.074 522.615 103.261 522.324 103.557 522.26L109.684 520.933C109.979 520.87 110.271 521.057 110.334 521.352L110.71 523.086L112.017 522.803L111.224 519.138L103.731 518.772C103.726 518.772 103.721 518.772 103.717 518.771L100.841 518.631L102.204 524.927L102.204 524.927Z" fill="#160334"/>
</g>
</g>
<g filter="url(#filter3_d_15_11)">
<path d="M83 65.6298C83 63.6251 84.6251 62 86.6298 62H139.37C141.375 62 143 63.6251 143 65.6298V118.37C143 120.375 141.375 122 139.37 122H86.6298C84.6251 122 83 120.375 83 118.37V65.6298Z" fill="#ECE6FF"/>
<path d="M83.9075 65.6298C83.9075 64.1263 85.1263 62.9075 86.6298 62.9075H139.37C140.874 62.9075 142.093 64.1263 142.093 65.6298V118.37C142.093 119.874 140.874 121.093 139.37 121.093H86.6298C85.1263 121.093 83.9075 119.874 83.9075 118.37V65.6298Z" stroke="#9B79D8" stroke-width="1.81492"/>
<g clip-path="url(#clip3_15_11)">
<path d="M111.707 75.5439C111.707 76.1729 111.195 76.6845 110.564 76.6845C109.936 76.6845 109.424 76.1728 109.424 75.5439C109.424 74.9139 109.936 74.4013 110.564 74.4013C111.195 74.4013 111.707 74.9139 111.707 75.5439ZM100.113 87.414V83.6442C100.113 83.3006 100.391 83.0221 100.735 83.0221H104.503C104.846 83.0221 105.125 83.3006 105.125 83.6442V87.414C105.125 87.7576 104.846 88.0361 104.503 88.0361H100.735C100.391 88.0361 100.113 87.7575 100.113 87.414ZM101.357 86.7919H103.881V84.2662H101.357V86.7919ZM107.335 88.0361H113.207C113.551 88.0361 113.829 87.7576 113.829 87.414C113.829 87.0704 113.551 86.7919 113.207 86.7919H107.335C106.991 86.7919 106.713 87.0704 106.713 87.414C106.713 87.7575 106.991 88.0361 107.335 88.0361ZM107.335 84.2662H119.079C119.423 84.2662 119.701 83.9877 119.701 83.6441C119.701 83.3005 119.423 83.022 119.079 83.022H107.335C106.991 83.022 106.713 83.3005 106.713 83.6441C106.713 83.9877 106.991 84.2662 107.335 84.2662ZM100.113 90.9325C100.113 90.5889 100.391 90.3104 100.735 90.3104H104.503C104.846 90.3104 105.125 90.5889 105.125 90.9325V94.7024C105.125 95.046 104.846 95.3245 104.503 95.3245H100.735C100.391 95.3245 100.113 95.046 100.113 94.7024V90.9325ZM101.357 94.0803H103.881V91.5546H101.357V94.0803ZM107.335 95.3245H113.207C113.551 95.3245 113.829 95.046 113.829 94.7024C113.829 94.3588 113.551 94.0803 113.207 94.0803H107.335C106.991 94.0803 106.713 94.3588 106.713 94.7024C106.713 95.046 106.991 95.3245 107.335 95.3245ZM107.335 91.5546H119.079C119.423 91.5546 119.701 91.2761 119.701 90.9325C119.701 90.5889 119.423 90.3104 119.079 90.3104H107.335C106.991 90.3104 106.713 90.5889 106.713 90.9325C106.713 91.2761 106.991 91.5546 107.335 91.5546ZM129.831 88.8423L123.862 96.2066V105.271C123.862 106.876 122.555 108.183 120.95 108.183H111.019C110.675 108.183 110.397 107.904 110.397 107.561C110.397 107.217 110.675 106.939 111.019 106.939H120.95C121.869 106.939 122.618 106.19 122.618 105.271V97.7415L118.427 102.912C118.358 102.996 118.269 103.061 118.168 103.1L114.404 104.556C114.332 104.584 114.256 104.598 114.18 104.598C114.04 104.598 113.901 104.551 113.788 104.459C113.615 104.319 113.53 104.097 113.566 103.877L114.21 99.8929C114.227 99.7857 114.272 99.6849 114.341 99.6005L122.617 89.3879V80.0308C122.617 79.1113 121.869 78.3632 120.95 78.3632H117.482V79.0315C117.482 79.8757 116.794 80.5625 115.949 80.5625H105.18C104.336 80.5625 103.649 79.8757 103.649 79.0315V78.3632H100.179C99.2606 78.3632 98.5136 79.1113 98.5136 80.0308V96.3436C98.5136 96.6872 98.2351 96.9657 97.8915 96.9657C97.5479 96.9657 97.2694 96.6872 97.2694 96.3436V80.0308C97.2694 78.4253 98.5746 77.1189 100.179 77.1189H103.649V76.4528C103.649 75.6086 104.336 74.9218 105.18 74.9218H107.076C107.371 73.2627 108.823 71.999 110.564 71.999C112.307 71.999 113.76 73.2627 114.055 74.9218H115.949C116.795 74.9218 117.482 75.6086 117.482 76.4528V77.1189H120.95C122.555 77.1189 123.862 78.4253 123.862 80.0308V87.8527L125.743 85.5311C126.185 84.9867 126.814 84.6467 127.514 84.5732C128.215 84.4998 128.9 84.7025 129.445 85.1444C129.988 85.5844 130.328 86.2128 130.401 86.9132C130.474 87.6131 130.272 88.2982 129.831 88.8423ZM116.238 76.4528C116.238 76.2974 116.106 76.1661 115.949 76.1661H113.487C113.144 76.1661 112.865 75.8875 112.865 75.5439C112.865 74.2754 111.833 73.2432 110.565 73.2432C109.297 73.2432 108.266 74.2754 108.266 75.5439C108.266 75.8875 107.987 76.1661 107.644 76.1661H105.18C105.022 76.1661 104.893 76.2946 104.893 76.4528V79.0315C104.893 79.1896 105.022 79.3182 105.18 79.3182H115.949C116.106 79.3182 116.238 79.1869 116.238 79.0315V76.4528H116.238ZM127.216 90.0935L125.061 88.3486L123.727 89.9953C123.723 90.0004 123.719 90.0056 123.714 90.0106L115.412 100.255L114.967 103.004L117.564 102L127.216 90.0935ZM129.164 87.0425C129.125 86.6729 128.947 86.3421 128.661 86.1107C128.375 85.878 128.014 85.7718 127.644 85.8105C127.274 85.8493 126.942 86.0286 126.709 86.315L125.845 87.3821L127.999 89.127L128.865 88.0592C129.096 87.7732 129.202 87.4121 129.164 87.0425ZM109.437 100.455V107.737C109.437 107.959 109.319 108.165 109.126 108.276L102.822 111.916C102.726 111.971 102.618 111.999 102.511 111.999C102.403 111.999 102.296 111.971 102.2 111.916L95.8952 108.276C95.7028 108.165 95.5842 107.959 95.5842 107.737V100.455C95.5842 100.233 95.7028 100.028 95.8952 99.9167L102.2 96.2768C102.392 96.1657 102.629 96.1657 102.822 96.2768L109.126 99.9167C109.319 100.028 109.437 100.233 109.437 100.455ZM97.4501 100.456L102.511 103.379L107.572 100.456L102.511 97.5339L97.4501 100.456ZM96.8282 107.378L101.888 110.299V104.456L96.8282 101.533V107.378ZM108.193 107.378V101.534L103.133 104.457V110.299L108.193 107.378Z" fill="black"/>
</g>
</g>
<defs>
<filter id="filter0_d_15_11" x="5" y="201.5" width="76" height="76" filterUnits="userSpaceOnUse" color-interpolation-filters="sRGB">
<feFlood flood-opacity="0" result="BackgroundImageFix"/>
<feColorMatrix in="SourceAlpha" type="matrix" values="0 0 0 0 0 0 0 0 0 0 0 0 0 0 0 0 0 0 127 0" result="hardAlpha"/>
<feOffset dx="7.25966" dy="7.25966"/>
<feGaussianBlur stdDeviation="3.62983"/>
<feComposite in2="hardAlpha" operator="out"/>
<feColorMatrix type="matrix" values="0 0 0 0 0.81961 0 0 0 0 0.767812 0 0 0 0 0.975 0 0 0 0.4 0"/>
<feBlend mode="normal" in2="BackgroundImageFix" result="effect1_dropShadow_15_11"/>
<feBlend mode="normal" in="SourceGraphic" in2="effect1_dropShadow_15_11" result="shape"/>
</filter>
<filter id="filter1_d_15_11" x="0" y="342.743" width="87.0581" height="87.0581" filterUnits="userSpaceOnUse" color-interpolation-filters="sRGB">
<feFlood flood-opacity="0" result="BackgroundImageFix"/>
<feColorMatrix in="SourceAlpha" type="matrix" values="0 0 0 0 0 0 0 0 0 0 0 0 0 0 0 0 0 0 127 0" result="hardAlpha"/>
<feOffset dx="7.25966" dy="7.25966"/>
<feGaussianBlur stdDeviation="3.62983"/>
<feComposite in2="hardAlpha" operator="out"/>
<feColorMatrix type="matrix" values="0 0 0 0 0.81961 0 0 0 0 0.767812 0 0 0 0 0.975 0 0 0 0.4 0"/>
<feBlend mode="normal" in2="BackgroundImageFix" result="effect1_dropShadow_15_11"/>
<feBlend mode="normal" in="SourceGraphic" in2="effect1_dropShadow_15_11" result="shape"/>
</filter>
<filter id="filter2_d_15_11" x="86" y="494.473" width="85.7244" height="85.7244" filterUnits="userSpaceOnUse" color-interpolation-filters="sRGB">
<feFlood flood-opacity="0" result="BackgroundImageFix"/>
<feColorMatrix in="SourceAlpha" type="matrix" values="0 0 0 0 0 0 0 0 0 0 0 0 0 0 0 0 0 0 127 0" result="hardAlpha"/>
<feOffset dx="7.25966" dy="7.25966"/>
<feGaussianBlur stdDeviation="3.62983"/>
<feComposite in2="hardAlpha" operator="out"/>
<feColorMatrix type="matrix" values="0 0 0 0 0.81961 0 0 0 0 0.767812 0 0 0 0 0.975 0 0 0 0.4 0"/>
<feBlend mode="normal" in2="BackgroundImageFix" result="effect1_dropShadow_15_11"/>
<feBlend mode="normal" in="SourceGraphic" in2="effect1_dropShadow_15_11" result="shape"/>
</filter>
<filter id="filter3_d_15_11" x="83" y="62" width="74.5193" height="74.5193" filterUnits="userSpaceOnUse" color-interpolation-filters="sRGB">
<feFlood flood-opacity="0" result="BackgroundImageFix"/>
<feColorMatrix in="SourceAlpha" type="matrix" values="0 0 0 0 0 0 0 0 0 0 0 0 0 0 0 0 0 0 127 0" result="hardAlpha"/>
<feOffset dx="7.25966" dy="7.25966"/>
<feGaussianBlur stdDeviation="3.62983"/>
<feComposite in2="hardAlpha" operator="out"/>
<feColorMatrix type="matrix" values="0 0 0 0 0.81961 0 0 0 0 0.767812 0 0 0 0 0.975 0 0 0 0.4 0"/>
<feBlend mode="normal" in2="BackgroundImageFix" result="effect1_dropShadow_15_11"/>
<feBlend mode="normal" in="SourceGraphic" in2="effect1_dropShadow_15_11" result="shape"/>
</filter>
<clipPath id="clip0_15_11">
<rect width="39.9281" height="39.9281" fill="white" transform="translate(13.8877 211.518) rotate(-2.25888)"/>
</clipPath>
<clipPath id="clip1_15_11">
<rect width="40" height="40" fill="white" transform="translate(11.9996 364.999) rotate(-14.4148)"/>
</clipPath>
<clipPath id="clip2_15_11">
<rect width="40" height="40" fill="white" transform="translate(97.9998 513.999) rotate(-12.2145)"/>
</clipPath>
<clipPath id="clip3_15_11">
<rect width="40" height="40" fill="white" transform="translate(92.9999 71.999)"/>
</clipPath>
</defs>
</svg>
