<svg width="125" height="78" viewBox="0 0 125 78" fill="none" xmlns="http://www.w3.org/2000/svg">
<path d="M0.000263214 29.0761C0.000263214 54.6226 18.2799 69.812 29.6632 76.808C31.106 77.6879 32.6642 75.856 31.5677 74.5577C28.0185 70.4034 23.8778 64.4747 21.0789 57.0027C23.6037 57.7239 26.2872 58.1134 29.0429 58.1134C45.0863 58.1134 58.0854 45.1166 58.0854 29.0761C58.0854 13.0356 45.0863 0.0388184 29.0429 0.0388184C12.9995 0.0388184 0.000263214 13.0356 0.000263214 29.0761Z" fill="#54347D"/>
<path d="M67.0852 29.0761C67.0852 54.6226 85.3649 69.812 96.7482 76.808C98.1909 77.6879 99.7491 75.856 98.6526 74.5577C95.1034 70.4034 90.9627 64.4747 88.1638 57.0027C90.6886 57.7239 93.3721 58.1134 96.1278 58.1134C112.171 58.1134 125.17 45.1021 125.17 29.0761C125.17 13.0501 112.171 0.0388184 96.1278 0.0388184C80.0844 0.0388184 67.0852 13.0356 67.0852 29.0761Z" fill="#54347D"/>
</svg>
